# xmcd CD database file
#
# Track frame offsets:
#	150
#	37498
#	56660
#	78244
#	102768
#	134033
#	156826
#	182596
#	224330
#	240216
#	264464
#
# Disc length: 3780 seconds
#
# Revision: 0
# Processed by: cddbd v1.5.2PL0 Copyright (c) Steve Scherf et al.
# Submitted via: CDex 1.70beta2
#
DISCID=980ec20b
DTITLE=XL Project - Distorted Reality
DYEAR=2008
DGENRE=東方アレンジ
TTITLE0=Distorted Reality
TTITLE1=Mystery of Desert [SubZero mix]
TTITLE2=Silver Nightmare
TTITLE3=Big Bridge -LibeRaTion Style-
TTITLE4=時の回廊 -H20 REMIX-
TTITLE5=Koorong (9 Elektrich Mix)
TTITLE6=memoria
TTITLE7=far-off door
TTITLE8=Flagment Floor -sense of 6th-
TTITLE9=What are your future plans?
TTITLE10=Chronos
EXTD=YEAR: 2008
EXTT0=
EXTT1=
EXTT2=
EXTT3=
EXTT4=
EXTT5=
EXTT6=
EXTT7=
EXTT8=
EXTT9=
EXTT10=
PLAYORDER=
